<?xml version="1.0" encoding="UTF-8" ?>
<!DOCTYPE svg PUBLIC "-//W3C//DTD SVG 1.1//EN" "http://www.w3.org/Graphics/SVG/1.1/DTD/svg11.dtd">
<svg width="25pt" height="25pt" viewBox="0 0 25 25" version="1.1" xmlns="http://www.w3.org/2000/svg">
<path fill="#fffef2" opacity="1.00" d=" M 12.22 0.00 L 12.43 0.00 C 13.12 1.04 13.62 2.16 13.94 3.36 C 14.52 3.81 15.11 4.24 15.71 4.68 C 13.91 4.14 12.04 4.17 10.19 4.40 C 10.97 2.98 11.58 1.48 12.22 0.00 Z" />
<path fill="#fffef2" opacity="1.00" d=" M 3.13 4.55 C 3.60 4.70 4.54 4.99 5.02 5.14 C 5.57 5.77 7.13 6.45 6.51 7.49 C 5.10 8.34 3.70 7.07 3.13 5.84 C 3.13 5.52 3.13 4.87 3.13 4.55 Z" />
<path fill="#fffef2" opacity="1.00" d=" M 18.29 6.23 C 18.75 6.26 19.69 6.31 20.16 6.34 L 20.12 7.19 C 19.66 6.95 18.75 6.47 18.29 6.23 Z" />
<path fill="#fffef2" opacity="1.00" d=" M 20.08 8.53 C 21.72 8.64 23.36 8.66 25.00 8.52 L 25.00 9.30 C 23.93 10.34 22.42 11.07 22.15 12.71 C 21.35 11.39 20.10 10.19 20.08 8.53 Z" />
<path fill="#fffef2" opacity="1.00" d=" M 9.19 9.11 C 9.38 9.46 9.77 10.17 9.96 10.52 C 10.45 11.52 10.91 12.54 11.36 13.56 C 14.60 14.79 17.93 15.99 21.46 15.83 C 21.67 15.46 22.09 14.71 22.30 14.34 C 23.13 14.39 23.95 14.46 24.77 14.54 C 24.92 16.02 24.56 17.33 23.69 18.45 C 20.07 18.44 16.45 18.62 12.83 18.45 C 12.38 18.28 11.49 17.95 11.04 17.78 C 9.90 17.28 8.77 16.77 7.65 16.24 C 8.54 18.82 6.61 20.49 4.78 21.83 C 3.03 20.30 1.99 18.19 1.04 16.12 L 0.00 16.76 L 0.00 13.96 C 0.66 13.42 1.98 12.34 2.64 11.80 L 2.93 11.77 C 5.64 11.57 8.18 12.62 10.69 13.45 C 10.58 11.83 9.81 10.79 8.39 10.34 C 8.59 10.03 8.99 9.42 9.19 9.11 M 0.95 15.42 C 1.59 16.02 2.35 16.89 3.35 16.57 C 3.19 18.17 3.71 19.50 4.91 20.56 C 5.48 19.62 6.61 17.74 7.18 16.80 C 5.46 15.25 3.09 15.37 0.95 15.42 Z" />
<path fill="#a7956a" opacity="1.00" d=" M 5.02 5.14 C 5.74 5.26 7.19 5.52 7.92 5.64 C 7.99 6.05 8.14 6.87 8.22 7.28 C 7.51 8.16 6.77 9.02 6.01 9.86 C 5.51 9.87 4.52 9.90 4.03 9.91 L 2.88 9.77 C 2.89 10.27 2.92 11.27 2.93 11.77 L 2.64 11.80 C 2.38 11.15 1.85 9.85 1.59 9.20 C 2.20 9.18 3.43 9.14 4.05 9.12 C 3.72 8.03 3.41 6.94 3.13 5.84 C 3.70 7.07 5.10 8.34 6.51 7.49 C 7.13 6.45 5.57 5.77 5.02 5.14 Z" />
<path fill="#a7956a" opacity="1.00" d=" M 7.65 16.24 C 8.77 16.77 9.90 17.28 11.04 17.78 C 10.59 17.84 9.71 17.96 9.26 18.02 C 9.38 18.37 9.60 19.06 9.72 19.41 C 8.74 20.05 8.07 20.93 7.72 22.05 C 9.95 22.60 14.87 24.77 14.64 20.72 C 14.50 19.57 13.90 18.82 12.83 18.45 C 16.45 18.62 20.07 18.44 23.69 18.45 C 21.14 19.70 20.35 22.83 17.73 23.94 C 16.51 24.57 15.15 24.82 13.80 25.00 L 12.24 25.00 C 9.44 24.92 6.81 23.73 4.78 21.83 C 6.61 20.49 8.54 18.82 7.65 16.24 Z" />
<path fill="#243ff0" opacity="1.00" d=" M 7.92 5.64 C 8.49 5.33 9.63 4.71 10.19 4.40 C 12.04 4.17 13.91 4.14 15.71 4.68 C 16.35 5.06 17.64 5.84 18.29 6.23 C 18.75 6.47 19.66 6.95 20.12 7.19 L 20.08 8.53 C 20.10 10.19 21.35 11.39 22.15 12.71 C 22.18 13.03 22.24 13.66 22.27 13.97 C 20.33 13.82 19.40 11.96 18.37 10.61 L 18.13 9.53 C 18.05 9.17 17.90 8.44 17.83 8.08 C 17.05 8.10 15.51 8.13 14.74 8.15 C 14.37 7.83 13.62 7.20 13.25 6.88 C 12.49 5.77 11.64 5.61 10.69 6.41 C 10.07 6.62 8.83 7.06 8.22 7.28 C 8.14 6.87 7.99 6.05 7.92 5.64 Z" />
<path fill="#1b36e1" opacity="1.00" d=" M 10.69 6.41 C 11.64 5.61 12.49 5.77 13.25 6.88 C 12.13 9.23 10.34 12.46 13.88 13.65 L 14.36 12.69 C 16.05 12.82 17.73 12.40 18.37 10.61 C 19.40 11.96 20.33 13.82 22.27 13.97 L 22.30 14.34 C 22.09 14.71 21.67 15.46 21.46 15.83 C 17.93 15.99 14.60 14.79 11.36 13.56 C 10.91 12.54 10.45 11.52 9.96 10.52 C 10.93 9.33 11.17 7.96 10.69 6.41 Z" />
<path fill="#6e71ee" opacity="1.00" d=" M 8.22 7.28 C 8.83 7.06 10.07 6.62 10.69 6.41 C 11.17 7.96 10.93 9.33 9.96 10.52 C 9.77 10.17 9.38 9.46 9.19 9.11 C 8.99 9.42 8.59 10.03 8.39 10.34 C 9.81 10.79 10.58 11.83 10.69 13.45 C 8.18 12.62 5.64 11.57 2.93 11.77 C 2.92 11.27 2.89 10.27 2.88 9.77 L 4.03 9.91 C 3.91 11.96 8.08 11.59 6.01 9.86 C 6.77 9.02 7.51 8.16 8.22 7.28 Z" />
<path fill="#928ef2" opacity="1.00" d=" M 13.25 6.88 C 13.62 7.20 14.37 7.83 14.74 8.15 C 13.81 9.22 13.58 10.36 14.05 11.60 L 14.36 12.69 L 13.88 13.65 C 10.34 12.46 12.13 9.23 13.25 6.88 Z" />
<path fill="#e1ddd1" opacity="1.00" d=" M 14.74 8.15 C 15.51 8.13 17.05 8.10 17.83 8.08 C 17.90 8.44 18.05 9.17 18.13 9.53 C 16.82 10.31 15.44 10.98 14.05 11.60 C 13.58 10.36 13.81 9.22 14.74 8.15 Z" />
<path fill="#2734f6" opacity="1.00" d=" M 4.03 9.91 C 4.52 9.90 5.51 9.87 6.01 9.86 C 8.08 11.59 3.91 11.96 4.03 9.91 Z" />
<path fill="#999191" opacity="1.00" d=" M 14.05 11.60 C 15.44 10.98 16.82 10.31 18.13 9.53 L 18.37 10.61 C 17.73 12.40 16.05 12.82 14.36 12.69 L 14.05 11.60 Z" />
<path fill="#514b44" opacity="1.00" d=" M 0.95 15.42 C 3.09 15.37 5.46 15.25 7.18 16.80 C 6.61 17.74 5.48 19.62 4.91 20.56 C 3.71 19.50 3.19 18.17 3.35 16.57 C 2.35 16.89 1.59 16.02 0.95 15.42 Z" />
<path fill="#221a15" opacity="1.00" d=" M 9.26 18.02 C 9.71 17.96 10.59 17.84 11.04 17.78 C 11.49 17.95 12.38 18.28 12.83 18.45 C 13.90 18.82 14.50 19.57 14.64 20.72 C 12.80 21.29 10.44 21.80 9.72 19.41 C 9.60 19.06 9.38 18.37 9.26 18.02 Z" />
<path fill="#d8c383" opacity="1.00" d=" M 7.72 22.05 C 8.07 20.93 8.74 20.05 9.72 19.41 C 10.44 21.80 12.80 21.29 14.64 20.72 C 14.87 24.77 9.95 22.60 7.72 22.05 Z" />
</svg>
