<?xml version="1.0" encoding="UTF-8" ?>
<!DOCTYPE svg PUBLIC "-//W3C//DTD SVG 1.1//EN" "http://www.w3.org/Graphics/SVG/1.1/DTD/svg11.dtd">
<svg width="25pt" height="21pt" viewBox="0 0 25 21" version="1.1" xmlns="http://www.w3.org/2000/svg">
<path fill="#2b9b39" opacity="0.71" d=" M 10.28 0.00 L 14.75 0.00 L 15.17 0.39 C 13.58 1.19 11.40 1.84 9.89 0.51 L 10.28 0.00 Z" />
<path fill="#1ada32" opacity="1.00" d=" M 6.94 1.97 C 7.96 1.55 8.94 1.06 9.89 0.51 C 11.40 1.84 13.58 1.19 15.17 0.39 C 15.66 0.59 16.63 0.97 17.12 1.16 L 16.75 1.52 L 15.79 1.54 C 14.13 1.56 12.47 1.53 10.81 1.51 C 10.34 3.54 10.36 6.21 7.98 6.99 C 8.70 5.78 6.33 3.54 6.32 5.76 C 6.58 6.15 7.12 6.94 7.39 7.33 L 6.23 8.00 C 5.83 7.90 5.03 7.70 4.62 7.60 C 4.39 7.27 3.91 6.59 3.68 6.25 L 3.77 5.83 C 5.05 4.76 6.34 3.58 6.94 1.97 Z" />
<path fill="#1f551f" opacity="0.59" d=" M 17.12 1.16 C 19.22 1.61 20.45 3.46 21.09 5.38 C 20.06 4.88 19.04 4.36 18.04 3.81 C 17.72 3.24 17.07 2.09 16.75 1.52 L 17.12 1.16 Z" />
<path fill="#1d2d20" opacity="0.19" d=" M 4.55 2.70 C 5.15 2.52 6.34 2.15 6.94 1.97 C 6.34 3.58 5.05 4.76 3.77 5.83 C 3.96 5.04 4.36 3.48 4.55 2.70 Z" />
<path fill="#0f8711" opacity="1.00" d=" M 10.81 1.51 C 12.47 1.53 14.13 1.56 15.79 1.54 C 17.00 4.34 17.86 7.29 18.28 10.32 C 16.52 10.03 14.75 9.74 13.02 9.29 C 14.10 7.83 15.99 6.52 15.66 4.46 C 14.75 3.49 13.34 3.31 12.18 2.79 C 12.06 4.72 11.96 6.66 11.93 8.60 C 10.03 8.40 8.13 8.19 6.23 8.00 L 7.39 7.33 L 7.98 6.99 C 10.36 6.21 10.34 3.54 10.81 1.51 Z" />
<path fill="#1a5018" opacity="1.00" d=" M 15.79 1.54 L 16.75 1.52 C 17.07 2.09 17.72 3.24 18.04 3.81 C 19.14 5.80 19.59 8.25 21.10 9.95 C 21.70 9.73 22.91 9.27 23.51 9.05 C 23.03 10.19 22.57 11.34 22.11 12.49 C 19.50 12.25 16.90 11.90 14.35 11.30 C 11.57 10.38 8.95 9.06 6.23 8.00 C 8.13 8.19 10.03 8.40 11.93 8.60 C 12.20 8.77 12.75 9.12 13.02 9.29 C 14.75 9.74 16.52 10.03 18.28 10.32 C 17.86 7.29 17.00 4.34 15.79 1.54 Z" />
<path fill="#12c727" opacity="1.00" d=" M 12.18 2.79 C 13.34 3.31 14.75 3.49 15.66 4.46 C 15.99 6.52 14.10 7.83 13.02 9.29 C 12.75 9.12 12.20 8.77 11.93 8.60 C 11.96 6.66 12.06 4.72 12.18 2.79 Z" />
<path fill="#099011" opacity="1.00" d=" M 18.04 3.81 C 19.04 4.36 20.06 4.88 21.09 5.38 L 21.43 6.09 C 21.51 6.22 21.66 6.48 21.73 6.61 C 22.18 7.22 23.06 8.44 23.51 9.05 C 22.91 9.27 21.70 9.73 21.10 9.95 C 19.59 8.25 19.14 5.80 18.04 3.81 Z" />
<path fill="#47e36a" opacity="1.00" d=" M 6.32 5.76 C 6.33 3.54 8.70 5.78 7.98 6.99 L 7.39 7.33 C 7.12 6.94 6.58 6.15 6.32 5.76 Z" />
<path fill="#ffffff" opacity="1.00" d=" M 0.00 10.58 C 0.99 8.95 2.38 7.64 3.68 6.25 C 3.91 6.59 4.39 7.27 4.62 7.60 C 5.03 7.70 5.83 7.90 6.23 8.00 C 8.95 9.06 11.57 10.38 14.35 11.30 C 12.46 11.39 10.01 10.84 8.80 12.75 L 9.07 12.89 C 7.75 12.32 6.44 11.75 5.09 11.25 C 3.42 10.33 1.57 10.34 0.01 11.52 L 0.00 11.86 L 0.00 10.58 Z" />
<path fill="#329a43" opacity="0.78" d=" M 21.43 6.09 C 21.51 6.22 21.66 6.48 21.73 6.61 C 21.66 6.48 21.51 6.22 21.43 6.09 Z" />
<path fill="#999791" opacity="1.00" d=" M 23.51 9.05 C 24.01 9.72 24.51 10.40 25.00 11.08 L 25.00 12.94 C 23.86 13.97 22.71 14.99 21.64 16.09 C 19.59 15.92 17.54 15.80 15.50 15.61 C 13.28 14.88 11.17 13.90 9.07 12.89 L 8.80 12.75 C 10.01 10.84 12.46 11.39 14.35 11.30 C 16.90 11.90 19.50 12.25 22.11 12.49 C 22.57 11.34 23.03 10.19 23.51 9.05 Z" />
<path fill="#c4bc8b" opacity="0.96" d=" M 0.01 11.52 C 1.57 10.34 3.42 10.33 5.09 11.25 C 4.33 11.33 2.80 11.48 2.04 11.56 C 3.05 13.01 5.53 17.44 7.01 13.68 C 7.65 14.26 8.28 14.84 8.92 15.43 C 7.96 16.78 6.70 17.57 5.13 17.79 C 3.21 15.88 1.71 13.61 0.01 11.52 Z" />
<path fill="#5e5437" opacity="1.00" d=" M 2.04 11.56 C 2.80 11.48 4.33 11.33 5.09 11.25 C 6.44 11.75 7.75 12.32 9.07 12.89 C 11.17 13.90 13.28 14.88 15.50 15.61 C 14.37 16.38 13.31 17.39 11.94 17.71 C 10.93 17.09 10.01 16.33 9.06 15.62 C 8.21 16.66 7.36 17.71 6.51 18.76 C 6.04 18.45 5.58 18.13 5.13 17.79 C 6.70 17.57 7.96 16.78 8.92 15.43 C 8.28 14.84 7.65 14.26 7.01 13.68 C 5.53 17.44 3.05 13.01 2.04 11.56 Z" />
<path fill="#d9c279" opacity="1.00" d=" M 15.50 15.61 C 17.54 15.80 19.59 15.92 21.64 16.09 C 18.40 21.09 11.32 21.97 6.51 18.76 C 7.36 17.71 8.21 16.66 9.06 15.62 C 10.01 16.33 10.93 17.09 11.94 17.71 C 13.31 17.39 14.37 16.38 15.50 15.61 Z" />
</svg>
