<?xml version="1.0" encoding="UTF-8" ?>
<!DOCTYPE svg PUBLIC "-//W3C//DTD SVG 1.1//EN" "http://www.w3.org/Graphics/SVG/1.1/DTD/svg11.dtd">
<svg width="25pt" height="21pt" viewBox="0 0 25 21" version="1.1" xmlns="http://www.w3.org/2000/svg">
<path fill="#ec1407" opacity="0.98" d=" M 7.62 1.97 C 10.27 -0.22 14.04 -0.10 16.84 1.74 C 16.23 3.57 16.09 5.47 16.90 7.26 C 18.12 6.78 19.33 6.29 20.55 5.81 C 20.89 6.57 21.22 7.33 21.54 8.08 C 20.59 8.21 18.68 8.47 17.73 8.60 C 15.16 7.31 14.54 4.65 14.39 2.03 C 12.14 1.99 9.88 1.93 7.62 1.97 Z" />
<path fill="#b60b04" opacity="1.00" d=" M 6.96 2.40 C 7.12 2.29 7.46 2.08 7.62 1.97 C 9.88 1.93 12.14 1.99 14.39 2.03 C 14.54 4.65 15.16 7.31 17.73 8.60 C 17.44 8.70 16.85 8.90 16.56 8.99 C 13.34 9.43 10.19 10.21 7.07 11.08 C 7.15 9.59 7.07 8.07 7.50 6.62 C 9.10 7.34 10.59 9.82 12.47 8.44 C 12.73 7.04 12.81 5.62 12.95 4.21 C 11.64 4.07 10.35 3.87 9.06 3.61 C 8.53 3.31 7.48 2.70 6.96 2.40 Z" />
<path fill="#fa6b21" opacity="0.98" d=" M 16.84 1.74 C 18.28 2.66 19.64 3.79 20.37 5.38 L 20.55 5.81 C 19.33 6.29 18.12 6.78 16.90 7.26 C 16.09 5.47 16.23 3.57 16.84 1.74 Z" />
<path fill="#c91b06" opacity="0.96" d=" M 2.50 8.38 C 3.71 6.19 5.13 4.11 6.96 2.40 C 6.90 5.59 5.26 8.36 3.70 11.03 C 3.39 10.54 2.78 9.56 2.47 9.07 L 2.50 8.38 Z" />
<path fill="#741111" opacity="1.00" d=" M 6.96 2.40 C 7.48 2.70 8.53 3.31 9.06 3.61 C 8.54 4.61 8.02 5.62 7.50 6.62 C 7.07 8.07 7.15 9.59 7.07 11.08 C 10.19 10.21 13.34 9.43 16.56 8.99 C 14.92 9.86 13.24 10.65 11.46 11.20 C 10.18 11.58 8.90 11.98 7.61 12.34 C 6.29 12.05 4.68 12.12 3.70 11.03 C 5.26 8.36 6.90 5.59 6.96 2.40 Z" />
<path fill="#ec3d05" opacity="1.00" d=" M 7.50 6.62 C 8.02 5.62 8.54 4.61 9.06 3.61 C 10.35 3.87 11.64 4.07 12.95 4.21 C 12.81 5.62 12.73 7.04 12.47 8.44 C 10.59 9.82 9.10 7.34 7.50 6.62 Z" />
<path fill="#fefbf9" opacity="1.00" d=" M 20.37 5.38 C 21.30 6.08 21.84 7.14 22.48 8.08 C 24.04 9.07 24.89 10.60 25.00 12.49 L 25.00 13.15 L 24.11 11.30 C 23.75 12.09 23.02 13.67 22.66 14.46 C 22.64 13.63 22.61 11.95 22.59 11.12 C 21.76 11.37 20.09 11.88 19.25 12.14 C 16.61 12.42 14.05 11.59 11.46 11.20 C 13.24 10.65 14.92 9.86 16.56 8.99 C 16.85 8.90 17.44 8.70 17.73 8.60 C 18.68 8.47 20.59 8.21 21.54 8.08 C 21.22 7.33 20.89 6.57 20.55 5.81 L 20.37 5.38 Z" />
<path fill="#95928f" opacity="1.00" d=" M 1.15 8.62 C 1.49 8.56 2.16 8.44 2.50 8.38 L 2.47 9.07 C 2.18 10.37 2.55 11.62 3.16 12.77 C 4.74 12.68 6.32 12.60 7.89 12.39 L 7.61 12.34 C 8.90 11.98 10.18 11.58 11.46 11.20 C 14.05 11.59 16.61 12.42 19.25 12.14 C 18.77 12.44 17.80 13.06 17.32 13.37 L 16.55 13.68 L 16.13 13.85 C 14.13 14.45 12.13 15.04 10.16 15.71 C 8.05 16.51 5.78 16.43 3.58 16.13 C 0.98 14.72 -0.51 12.38 0.92 9.45 L 1.15 8.62 Z" />
<path fill="#3b3525" opacity="0.95" d=" M 19.25 12.14 C 20.09 11.88 21.76 11.37 22.59 11.12 C 22.61 11.95 22.64 13.63 22.66 14.46 C 22.60 14.58 22.47 14.83 22.40 14.95 L 22.25 13.10 C 21.30 14.15 20.30 15.15 19.28 16.13 C 18.79 15.44 17.81 14.06 17.32 13.37 C 17.80 13.06 18.77 12.44 19.25 12.14 Z" />
<path fill="#322e23" opacity="1.00" d=" M 10.16 15.71 C 12.13 15.04 14.13 14.45 16.13 13.85 C 15.75 14.78 15.38 15.71 15.02 16.65 C 13.48 18.56 11.14 17.66 10.16 15.71 Z" />
<path fill="#bba35f" opacity="1.00" d=" M 16.13 13.85 L 16.55 13.68 C 17.03 15.49 18.16 16.97 19.42 18.31 C 19.02 18.59 18.22 19.15 17.81 19.43 C 16.89 18.50 15.95 17.57 15.02 16.65 C 15.38 15.71 15.75 14.78 16.13 13.85 Z" />
<path fill="#f0e79d" opacity="1.00" d=" M 16.55 13.68 L 17.32 13.37 C 17.81 14.06 18.79 15.44 19.28 16.13 C 20.30 15.15 21.30 14.15 22.25 13.10 L 22.40 14.95 C 21.65 16.26 20.59 17.37 19.42 18.31 C 18.16 16.97 17.03 15.49 16.55 13.68 Z" />
<path fill="#d6c07a" opacity="1.00" d=" M 3.58 16.13 C 5.78 16.43 8.05 16.51 10.16 15.71 C 11.14 17.66 13.48 18.56 15.02 16.65 C 15.95 17.57 16.89 18.50 17.81 19.43 C 13.12 21.95 6.26 21.16 3.58 16.13 Z" />
</svg>
